<svg width="13" height="14" viewBox="0 0 13 14" fill="none" xmlns="http://www.w3.org/2000/svg">
<path d="M12.3639 11.7064L12.3698 2.28024C12.3661 2.10478 12.3277 1.93183 12.257 1.7713C12.122 1.44761 11.8647 1.19037 11.541 1.05535C11.3805 0.984609 11.2076 0.946277 11.0321 0.942556L1.60592 0.948398C1.43015 0.948507 1.25607 0.983236 1.09363 1.0506C0.931194 1.11797 0.783575 1.21666 0.659205 1.34103C0.408029 1.5922 0.266797 1.93275 0.266577 2.28774C0.266357 2.64274 0.407167 2.98311 0.658032 3.23397C0.908897 3.48484 1.24927 3.62565 1.60426 3.62543L7.81611 3.61215L0.657218 10.771C0.407066 11.0212 0.266408 11.3604 0.266189 11.7139C0.26597 12.0675 0.406208 12.4064 0.65605 12.6563C0.905893 12.9061 1.24487 13.0464 1.59842 13.0461C1.95197 13.0459 2.29113 12.9053 2.54128 12.6551L9.70018 5.49622L9.6869 11.7081C9.68607 11.884 9.72009 12.0584 9.787 12.2211C9.85391 12.3838 9.95239 12.5315 10.0767 12.6559C10.2011 12.7803 10.3489 12.8787 10.5116 12.9457C10.6743 13.0126 10.8486 13.0466 11.0246 13.0458C11.2006 13.0464 11.375 13.0121 11.5377 12.945C11.7005 12.8779 11.8484 12.7792 11.9729 12.6547C12.0974 12.5302 12.1961 12.3823 12.2632 12.2196C12.3303 12.0568 12.3645 11.8824 12.3639 11.7064Z" fill="black"/>
</svg>
